# xmcd
#
# Track frame offsets: 
#        150
#        16178
#        31753
#        45733
#        62559
#        86052
#        101738
#        113623
#        139199
#        154524
#        170924
#        186091
#        204769
#        221195
#        236246
#        252530
#        276380
#        290228
#        309198
#        323036
#
# Disc length: 4694 seconds
#
# Revision: 0
# Processed by: cddbd v1.5.2PL0 Copyright (c) Steve Scherf et al.
# Submitted via: ExactAudioCopy v1.0b3
#
DISCID=25125414
DTITLE=Various Artist - Trance Universe Vol. 1 - CD 2
DYEAR=1900
DGENRE=
TTITLE0=Haiducii - Dragostea Din Tei (Original Mix)
TTITLE1=Kate Ryan - The Promise You Made (Radio Version)
TTITLE2=Double Nation - I'm Gonna Get You (Radio Edit)
TTITLE3=SM-Trax - Ignition (Radio Edit)
TTITLE4=Avantgarde - Get Down (Again) (Megara Vs. DJ Lee Radio Mix)
TTITLE5=Klubbheroes - Poco Loco (Poco Radio Mix)
TTITLE6=Gigi and Molly - Con Il Nostro Rosa (Gigi D'Agostino Radio Gigat
TTITLE6=rip)
TTITLE7=Lichtenfels - B-Boys Fly Girls (Radio Edit)
TTITLE8=Potatoheads Feat. DA Rook MC - Turn It Up (Radio Mix)
TTITLE9=L2R Vs. Toto Cutugno - Autre Chanson (Idea Short Rmx)
TTITLE10=E-Love - Cause I Don't Love You No More (Escanor Radio Edit)
TTITLE11=Drunkenmunky - Yeah!
TTITLE12=DJ Taylor and Flow Vs. DJ Thoka - Happy Song (DJ Taylor Radio M
TTITLE12=ix)
TTITLE13=Paul Hutsch - Glory (Erik Vee Rmx Cut)
TTITLE14=Seikos and Join Forces - Reality (A&B Brothers Rmx Radio Edit)
TTITLE15=Aven - All I Wanna Do (Ferry Corsten Rmx Radio Edit)
TTITLE16=Tory Kay Vs. Alex Megane - The Rising Sun (Alex Megane Airpla
TTITLE16=y Mix)
TTITLE17=Ferry Corsten - It's Time (Ferry Corsten´s Flashover Mix)
TTITLE18=Age Of Love - The Age Of Love (Marc Et Claude Radio Edit)
TTITLE19=Airscape - Sosei
EXTD=
EXTT0=
EXTT1=
EXTT2=
EXTT3=
EXTT4=
EXTT5=
EXTT6=
EXTT7=
EXTT8=
EXTT9=
EXTT10=
EXTT11=
EXTT12=
EXTT13=
EXTT14=
EXTT15=
EXTT16=
EXTT17=
EXTT18=
EXTT19=
PLAYORDER=
